<svg class="icon facebook" viewBox="0 0 300 300" xmlns="http://www.w3.org/2000/svg" style="fill-rule:evenodd;clip-rule:evenodd;stroke-linejoin:round;stroke-miterlimit:2;">
    <g transform="matrix(490.294,0,0,491.872,58.3092,363.096)">
        <path d="M0.018,-0.519L0.098,-0.519L0.098,-0.558C0.098,-0.601 0.107,-0.634 0.116,-0.655C0.125,-0.677 0.142,-0.696 0.167,-0.71C0.192,-0.723 0.209,-0.728 0.248,-0.728C0.287,-0.728 0.325,-0.722 0.362,-0.71L0.361,-0.608C0.339,-0.613 0.301,-0.623 0.281,-0.623C0.261,-0.623 0.247,-0.618 0.238,-0.609C0.229,-0.599 0.225,-0.582 0.225,-0.555L0.225,-0.519L0.328,-0.519L0.314,-0.411L0.225,-0.411L0.225,-0.138L0.098,-0.138L0.098,-0.411L0.018,-0.411L0.018,-0.519Z" style="fill-rule:nonzero;"/>
    </g>
</svg>
