<svg viewBox="0 0 173 303" xmlns="http://www.w3.org/2000/svg">
    <g transform="matrix(1,0,0,1,-63.5316,-2.1601)">
        <g id="location" transform="matrix(1.22893,0,0,1.22893,-30.7396,-42.555)">
            <g id="base" transform="matrix(0.753148,0,0,0.743632,41.0411,101.638)">
                <ellipse cx="140.781" cy="194.566" rx="77.25" ry="34.665" style="fill:none;stroke:black;stroke-width:15.22px;"/>
            </g>
            <g id="drop" transform="matrix(0.813713,0,0,0.813713,25.0133,33.9441)">
                <path d="M150,3C197.723,3 236.468,41.745 236.468,89.468C236.468,156.541 202.746,225.832 150,277C95.69,225.552 63.645,155.524 63.532,89.468C63.45,41.745 102.277,3 150,3ZM150,35.09C178.424,35.09 201.5,58.167 201.5,86.59C201.5,115.014 178.424,138.09 150,138.09C121.576,138.09 98.5,115.014 98.5,86.59C98.5,58.167 121.576,35.09 150,35.09Z"/>
            </g>
        </g>
    </g>
</svg>
