<svg width="100%" height="100%" viewBox="0 0 300 300" xmlns="http://www.w3.org/2000/svg" style="fill-rule:evenodd;clip-rule:evenodd;stroke-linejoin:round;stroke-miterlimit:2;">
  <g id="bottle-body" transform="matrix(0.157048 0 0 0.157048 -32.0946 27.9041)">
    <path
      d="M1210.9 673.2C1042.3 397.9 503.2 498.9 355.5 820.9 231.1 1092.1 245.8 1481.8 566.2 1720.3 844.5 1724 1227.9 1720.7 1479.9 1720.3 1802.2 1487.7 1826.3 1025.1 1727.5 783.8 1583.8 433.4 1222.1 300.3 818.5 425.7 1238.9 406.5 1579 563 1597.3 938.3 1613.6 1271.6 1468.4 1627.6 996.5 1632.2 590.1 1636.3 401.3 1218.2 495 930.3 593 629.2 920.7 470.8 1210.9 673.2Z"
      fill="rgb(204,154,108)"/>
  </g>
  <g id="flame-3" transform="matrix(0.216248 0.100838 -0.0756492 0.16223 -73.1745 -153.73)">
    <path d="M1532.6 381.7C1683.3 381.7 1790.3 500 1790.3 500 1790.3 500 1667.2 618.3 1532.6 618.3 1398.1 618.3 1275 500 1275 500 1275 500 1381.9 381.7 1532.6 381.7Z"
    style="fill-opacity:0.5;fill:rgb(204,154,108)"/>
  </g>
  <g id="flame-2" transform="matrix(0.238604 0 0 0.179001 -139.503 -33.547)">
    <path d="M1532.6 381.7C1683.3 381.7 1790.3 500 1790.3 500 1790.3 500 1667.2 618.3 1532.6 618.3 1398.1 618.3 1275 500 1275 500 1275 500 1381.9 381.7 1532.6 381.7Z"
    style="fill-opacity:0.5;fill:rgb(204,154,108)"/>
  </g>
  <g id="flame-1" transform="matrix(0.216248 -0.100838 0.0756492 0.16223 -148.825 103.386)">
    <path d="M1532.6 381.7C1683.3 381.7 1790.3 500 1790.3 500 1790.3 500 1667.2 618.3 1532.6 618.3 1398.1 618.3 1275 500 1275 500 1275 500 1381.9 381.7 1532.6 381.7Z"
    style="fill-opacity:0.5;fill:rgb(204,154,108)"/>
  </g>
  <g id="bottle-head" transform="matrix(0.129944 0 0 0.129944 -9.67072 19.5619)">
    <circle cx="1028.1" cy="287.3" r="211.5"
    fill="rgb(204,154,108)"/>
  </g>
</svg>
